<svg xmlns="http://www.w3.org/2000/svg" viewBox="0 0 368.35 83"><defs><style>.cls-1{fill:#fff;}</style></defs><title>Ativo 19</title><g id="Camada_2" data-name="Camada 2"><g id="Camada_1-2" data-name="Camada 1"><path class="cls-1" d="M123.19,17.13l-20.3,51.12h8.56l5.33-13.89h19.73l5.4,13.89h8.5L130.25,17.13Zm-5,31.25,8.5-22,8.21,22Z"/><polygon class="cls-1" points="147.02 24.26 164.09 24.26 164.09 68.25 172.22 68.25 172.22 24.26 189.21 24.26 189.21 17.13 147.02 17.13 147.02 24.26"/><rect class="cls-1" x="196.05" y="17.13" width="8.06" height="51.12"/><polygon class="cls-1" points="241.2 48.38 224.28 17.13 215.64 17.13 215.64 68.25 223.7 68.25 223.7 31.46 238.97 59.32 243.43 59.32 258.62 31.46 258.62 68.25 266.76 68.25 266.76 17.13 258.12 17.13 241.2 48.38"/><path class="cls-1" d="M317.34,25A25.11,25.11,0,0,0,309.63,19a21.85,21.85,0,0,0-10-2.27,22.69,22.69,0,0,0-9.83,2.13,24.42,24.42,0,0,0-7.77,5.72,27.11,27.11,0,0,0-5.15,8.28A26.07,26.07,0,0,0,275,42.69a26.85,26.85,0,0,0,1.76,9.58,26.34,26.34,0,0,0,5,8.31,24.87,24.87,0,0,0,7.74,5.84,23.66,23.66,0,0,0,19.73.07,25.35,25.35,0,0,0,7.81-5.69,25.78,25.78,0,0,0,5.15-8.24,26.62,26.62,0,0,0,.07-19.27A27.31,27.31,0,0,0,317.34,25Zm-2.63,24.48a19.39,19.39,0,0,1-3.17,6,16.15,16.15,0,0,1-5.08,4.28,14.17,14.17,0,0,1-6.87,1.62,14.67,14.67,0,0,1-6.77-1.55,16,16,0,0,1-5.15-4.14,18.93,18.93,0,0,1-3.27-6,21.39,21.39,0,0,1,0-13.78,18.79,18.79,0,0,1,3.2-5.94,16.52,16.52,0,0,1,5.12-4.21,15.36,15.36,0,0,1,13.57-.08,16.47,16.47,0,0,1,5.11,4.11,18.55,18.55,0,0,1,3.28,5.9,21.88,21.88,0,0,1,.07,13.79Z"/><path class="cls-1" d="M367.16,48.2a11.45,11.45,0,0,0-3.35-4.07,20.11,20.11,0,0,0-5.29-2.81,64.6,64.6,0,0,0-7-2.08q-3.17-.8-5.54-1.48a17.79,17.79,0,0,1-4-1.59,6.33,6.33,0,0,1-2.34-2.08A5.58,5.58,0,0,1,338.9,31a6.2,6.2,0,0,1,2.41-5.19c1.61-1.24,4.12-1.87,7.53-1.87a19.9,19.9,0,0,1,4.5.51,22.93,22.93,0,0,1,4,1.29,21.11,21.11,0,0,1,3.2,1.69,11.07,11.07,0,0,1,2.09,1.7l3.67-6.63a31.58,31.58,0,0,0-7.7-4.1,26.81,26.81,0,0,0-9.58-1.66,25.64,25.64,0,0,0-7.34,1,17.14,17.14,0,0,0-5.87,3,14.19,14.19,0,0,0-3.92,4.89,14.88,14.88,0,0,0-1.44,6.66,12.26,12.26,0,0,0,1,5.15,10.59,10.59,0,0,0,2.84,3.71,16.47,16.47,0,0,0,4.72,2.7A60.8,60.8,0,0,0,345.67,46c2.21.58,4.17,1.13,5.9,1.66A24.84,24.84,0,0,1,356,49.42a8.48,8.48,0,0,1,2.78,2.27,5.3,5.3,0,0,1,1,3.24,5.47,5.47,0,0,1-2.59,4.9q-2.6,1.65-7.35,1.65a23.21,23.21,0,0,1-5.69-.68A36.31,36.31,0,0,1,339,59.14,24.61,24.61,0,0,1,334.9,57a17.5,17.5,0,0,1-2.7-2.09l-3.67,6.91A32.17,32.17,0,0,0,338.36,67a36.14,36.14,0,0,0,11.27,1.76,30.66,30.66,0,0,0,7.27-.82,17.62,17.62,0,0,0,5.94-2.6,12.53,12.53,0,0,0,4-4.57,14.12,14.12,0,0,0,1.48-6.69A13.21,13.21,0,0,0,367.16,48.2Z"/><polygon class="cls-1" points="48.08 70.67 40.76 58 30.29 58 44.73 83 51.43 83 65.86 58 55.39 58 48.08 70.67"/><polygon class="cls-1" points="33.91 0 4.1 0 0 5.24 15.46 32 20.66 22.99 12.57 9 28.73 9 33.91 0"/><polygon class="cls-1" points="62.24 0 67.42 9 83.58 9 75.5 22.99 80.69 32 96.01 5.49 93.32 0 62.24 0"/></g></g></svg>